<svg width="24" height="15" viewBox="0 0 24 15" fill="none" xmlns="http://www.w3.org/2000/svg">
<path d="M19 5C21.4609 5.03516 23.4648 7.03906 23.5 9.46484C23.5 11.9961 21.4609 14.0352 18.9297 14C16.5039 14 14.5 11.9961 14.5 9.53516C14.4648 8.16406 15.0977 6.93359 16.0469 6.08984L15.625 5.35156C14.2539 6.47656 13.5859 8.09375 13.6562 9.74609C13.6562 10.2383 13.2695 10.625 12.8125 10.625H9.85938C9.33203 12.5938 7.57422 14 5.5 14C2.96875 14 0.929688 11.9609 1 9.39453C1.03516 7.03906 2.93359 5.10547 5.32422 5.03516C5.81641 5 6.30859 5.07031 6.76562 5.21094L7.15234 4.47266C6.83594 3.98047 6.34375 3.59375 5.5 3.59375H3.53125C3.03906 3.59375 2.6875 3.24219 2.6875 2.78516C2.65234 2.29297 3.07422 1.90625 3.53125 1.90625H5.5C7.43359 1.90625 8.38281 2.50391 8.98047 3.3125H14.3945L13.7266 2.1875H11.4062C11.0898 2.1875 10.8438 1.94141 10.8438 1.625V1.0625C10.8438 0.78125 11.0898 0.5 11.4062 0.5H14.2188C14.5 0.5 14.7812 0.675781 14.9219 0.921875L15.7305 2.25781L17.0312 0.78125C17.207 0.605469 17.418 0.5 17.6641 0.5H19.2812C19.7383 0.5 20.125 0.886719 20.125 1.34375V2.46875C20.125 2.96094 19.7383 3.3125 19.2812 3.3125H16.3633L17.5234 5.24609C17.9805 5.10547 18.5078 5 19 5ZM5.5 12.3125C6.625 12.3125 7.60938 11.6445 8.06641 10.625H5.21875C4.55078 10.625 4.16406 9.95703 4.48047 9.39453L5.92188 6.72266C5.78125 6.72266 5.64062 6.6875 5.5 6.6875C3.91797 6.6875 2.6875 7.95312 2.6875 9.5C2.6875 11.082 3.91797 12.3125 5.5 12.3125ZM21.7773 9.67578C21.8828 8.05859 20.582 6.6875 19 6.72266C18.7891 6.72266 18.6133 6.72266 18.4375 6.75781L20.125 9.60547C20.3008 9.88672 20.1953 10.2383 19.9492 10.3789L19.457 10.6602C19.1758 10.8359 18.8594 10.7305 18.6836 10.4844L16.9609 7.56641C16.4688 8.09375 16.1875 8.76172 16.1875 9.5C16.1875 11.1172 17.5234 12.418 19.1406 12.3125C20.5469 12.2422 21.707 11.082 21.7773 9.67578Z" fill="#F17228"/>
</svg>
