<svg width="24" height="24" viewBox="0 0 24 24" fill="none" xmlns="http://www.w3.org/2000/svg">
<path d="M19.8824 4.88129L19.1465 4.14535C18.9385 3.93736 18.5545 3.96937 18.3145 4.25731L15.7543 6.80128C14.6022 6.30533 13.3384 6.06533 12.0103 6.06533C8.05819 6.08127 4.63441 8.38524 2.9863 11.6974C2.89027 11.9054 2.89027 12.1614 2.9863 12.3374C3.75423 13.9054 4.9063 15.2014 6.3463 16.1774L4.25031 18.3053C4.01031 18.5453 3.9783 18.9293 4.13835 19.1373L4.87429 19.8733C5.08228 20.0812 5.46627 20.0492 5.70627 19.7613L19.7542 5.7134C20.0582 5.47354 20.0902 5.08958 19.8822 4.88156L19.8824 4.88129ZM12.8583 9.71318C12.5863 9.64916 12.2983 9.5692 12.0263 9.5692C10.6663 9.5692 9.57839 10.6572 9.57839 12.0171C9.57839 12.2891 9.64241 12.5771 9.72236 12.8491L8.65025 13.9051C8.33029 13.3452 8.1543 12.7211 8.1543 12.0172C8.1543 9.88919 9.86633 8.17717 11.9943 8.17717C12.6984 8.17717 13.3223 8.35315 13.8823 8.67311L12.8583 9.71318Z" fill="#111111"/>
<path d="M21.0344 11.6974C20.4745 10.5773 19.7384 9.56941 18.8265 8.75338L15.8505 11.6974V12.0173C15.8505 14.1453 14.1384 15.8573 12.0104 15.8573H11.6905L9.80251 17.7453C10.5066 17.8893 11.2425 17.9853 11.9625 17.9853C15.9146 17.9853 19.3384 15.6814 20.9865 12.3532C21.1305 12.1291 21.1305 11.9052 21.0345 11.6972L21.0344 11.6974Z" fill="#111111"/>
</svg>
